# xmcd CD database file
#
# Track frame offsets:
#	150
#	16770
#	34283
#	48265
#	60956
#	83072
#	97532
#	110678
#	126542
#	135861
#	148119
#	159513
#
# Disc length: 2345 seconds
#
# Revision: 0
# Processed by: cddbd v1.4PL0 Copyright (c) Steve Scherf et al.
# Submitted via: CDex 1.50beta9
#
DISCID=9009270c
DTITLE=Trio 3-D - O Trio 3-D Convida
DYEAR=1965
DGENRE=Jazz
TTITLE0=Água de Beber
TTITLE1=My Heart Stood Still
TTITLE2=Preciso Aprender A Ser Só
TTITLE3=Tamanco No Samba
TTITLE4=Reza
TTITLE5=Batucada Surgiu
TTITLE6=Só Tinha Que Ser Com Você
TTITLE7=Minha Namorada
TTITLE8=Tema 3-D
TTITLE9=Bye, Bye Blackbird
TTITLE10=O Passarinho
TTITLE11=Peter Samba
EXTD=YEAR: 1965
EXTT0=
EXTT1=
EXTT2=
EXTT3=
EXTT4=
EXTT5=
EXTT6=
EXTT7=
EXTT8=
EXTT9=
EXTT10=
EXTT11=
PLAYORDER=
